<svg width="50" height="49" viewBox="0 0 50 49" fill="none" xmlns="http://www.w3.org/2000/svg">
<path d="M22.6495 0.0114136C22.6693 0.656794 22.6896 1.30253 22.7101 1.96747C22.8055 4.89906 22.9146 7.83033 23.0245 10.7614L23.1183 13.8395L23.2354 16.8083C23.2826 18.159 23.2831 18.1595 23.3311 19.5378C23.7986 23.1638 24.6401 25.2095 27.5294 27.5036C28.2729 27.9598 29.0163 28.4163 29.7823 28.8864L32.2237 30.4333C33.9299 31.4889 35.6383 32.5409 37.3487 33.5895L39.7823 35.1364C40.5237 35.5927 41.2656 36.0491 42.0294 36.5192C42.5641 37.0115 43.0986 37.5042 43.6495 38.0114V42.0114C42.0052 43.4604 42.0049 43.4607 39.837 44.6989L37.6925 45.9606C30.8226 49.494 20.8489 49.2718 13.5128 47.07C7.79037 44.3414 3.98621 41.3481 1.57919 35.3395C-0.697333 27.19 -0.814424 16.4124 3.24326 8.84735C8.49385 1.99241 14.2629 -0.179162 22.6495 0.0114136ZM26.6495 0.0114136C34.3252 0.505313 39.2605 1.17539 44.6495 7.01141C50.0206 14.1426 49.4478 23.5176 48.6495 32.0114C47.6262 34.4915 47.626 34.492 46.6495 36.0114C41.9504 34.442 38.3499 31.8461 34.3995 28.9489L32.4698 27.5563C27.8411 24.203 27.8409 24.2028 26.6495 23.0114C26.5624 21.3038 26.5425 19.5923 26.5518 17.8825L26.5616 14.7477L26.587 11.4489L26.6007 8.13837C26.6125 5.42944 26.629 2.72029 26.6495 0.0114136Z" fill="black"/>
</svg>
