<svg width="49" height="49" viewBox="0 0 49 49" fill="none" xmlns="http://www.w3.org/2000/svg">
<path d="M15.2385 33.6383C18.958 34.1925 20.1089 35.1187 22.3322 38.0992C22.8352 42.2068 22.6597 43.6081 20.3322 47.0992C14.3125 48.9911 8.07862 48.6383 2.33224 46.0992C0.332311 43.0993 0.332257 43.0989 0.457245 39.5367C1.33219 36.0995 1.33256 36.099 2.98068 34.9078C6.00572 33.8677 8.63546 33.7609 11.8322 33.7242L15.2385 33.6383ZM41.0471 17.7711C44.3322 18.0992 44.3323 18.0993 46.2229 19.1735C50.1352 25.9651 48.5876 37.1785 46.8049 44.4391L46.3322 46.0992C40.79 48.1474 35.0543 49.09 29.3322 47.0992C25.4522 42.8184 25.916 37.9859 26.0197 32.5367L26.01 29.9606C26.0461 25.7772 26.0784 22.745 28.3322 19.0992C31.2861 17.6223 33.984 17.8899 37.2697 17.8492L41.0471 17.7711ZM2.33224 2.09924C7.87451 0.0510142 13.6101 -0.891449 19.3322 1.09924C23.2124 5.38019 22.7485 10.2125 22.6447 15.6617L22.6545 18.2379C22.6184 22.4212 22.5862 25.4534 20.3322 29.0992C17.3785 30.576 14.6805 30.3086 11.3947 30.3492L7.6174 30.4274C4.33247 30.0993 4.3322 30.0992 2.44162 29.025C-1.47074 22.2335 0.0769265 11.0201 1.85959 3.7594L2.33224 2.09924ZM30.5197 0.411743C36.2224 -0.221887 41.0113 -0.251863 46.3322 2.09924C48.3321 5.09909 48.3322 5.09929 48.0197 8.16174C47.3323 11.0989 47.3322 11.0993 46.3322 13.0992C43.0246 14.2018 40.3765 14.3367 36.8947 14.4117L33.4612 14.525C30.3324 14.0993 30.3322 14.0992 27.9455 12.2711C25.7936 9.37406 25.8814 7.6306 26.3322 4.09924C28.3322 1.09938 28.3325 1.09915 30.5197 0.411743Z" fill="black"/>
</svg>
