<svg width="49" height="49" viewBox="0 0 49 49" fill="none" xmlns="http://www.w3.org/2000/svg">
<path d="M28.7937 0.264512C29.5186 0.290615 30.2434 0.316719 30.9903 0.343613C35.6547 0.615507 39.1316 1.35342 43.1062 4.01451C47.2643 8.73861 47.7804 12.7387 47.9187 18.7645C47.9616 19.96 47.9616 19.96 48.0054 21.1796C48.4948 38.0434 48.4948 38.0434 43.1062 44.0145C38.487 46.8339 34.3013 47.604 28.9812 47.827C28.2371 47.8627 27.493 47.8984 26.7263 47.9352C19.166 48.1996 11.6093 48.1163 4.98123 44.1395C0.900386 39.5146 0.67989 35.3516 0.418728 29.3895C0.381103 28.5835 0.343479 27.7775 0.304714 26.9471C-0.369411 10.0821 -0.369411 10.0821 5.10623 4.01451C12.2491 -0.80279 20.5637 -0.105534 28.7937 0.264512ZM33.1062 13.0145C30.4166 16.9799 30.8459 21.1054 30.9187 25.702C30.9194 26.4864 30.92 27.2708 30.9207 28.079C30.5945 31.853 30.5945 31.853 32.1062 35.0145C34.6062 35.1812 34.6062 35.1812 37.1062 35.0145C39.3459 32.7748 38.2915 27.5855 38.2937 24.577C38.306 23.6921 38.3182 22.8071 38.3308 21.8954C38.3328 21.0491 38.3347 20.2028 38.3367 19.3309C38.3408 18.5518 38.3449 17.7726 38.3491 16.9698C38.2803 14.7789 38.2803 14.7789 36.1062 13.0145C35.1162 13.0145 34.1262 13.0145 33.1062 13.0145ZM22.1062 21.0145C20.7672 22.1258 20.7672 22.1258 21.0086 24.9559C21.0202 26.1509 21.0318 27.3458 21.0437 28.577C21.0528 29.7746 21.0618 30.9721 21.0711 32.2059C21.0827 33.1328 21.0943 34.0596 21.1062 35.0145C23.0862 35.0145 25.0662 35.0145 27.1062 35.0145C27.1062 30.7245 27.1062 26.4345 27.1062 22.0145C25.4562 21.6845 23.8062 21.3545 22.1062 21.0145ZM12.1062 26.0145C9.77344 27.9056 9.77344 27.9056 9.91873 31.077C9.77435 33.9028 9.77435 33.9028 11.1062 35.0145C13.6062 35.1812 13.6062 35.1812 16.1062 35.0145C17.4381 33.9028 17.4381 33.9028 17.2937 31.077C17.439 27.9056 17.439 27.9056 15.1062 26.0145C14.1162 26.0145 13.1262 26.0145 12.1062 26.0145Z" fill="black"/>
</svg>
