<svg width="48" height="48" viewBox="0 0 48 48" fill="none" xmlns="http://www.w3.org/2000/svg">
<path d="M22 28.8398H29V47.8398H18V26.8398L22 28.8398ZM34.5352 21.5977C38.8374 17.0716 41.7561 16.522 48 16.8398C47.9191 21.0906 47.8063 25.34 47.6875 29.5898L47.6191 33.2461L47.5117 36.7617C47.4855 37.83 47.4596 38.8983 47.4326 39.999C46.9407 43.2308 46.4359 44.6548 44 46.8398C41.3008 47.2305 41.3008 47.2305 38.3125 47.0898L35.3008 46.9805L33 46.8398C31.7074 27.5698 31.7074 27.5698 34.5352 21.5977ZM15 46.8398C5.82031 47.0352 5.82031 47.0352 3 46.8398L1 44.8398C1.14985 40.5879 4.21844 38.1465 7 35.2148C10.3827 31.8112 10.3827 31.8112 13 27.8398H15V46.8398ZM35 0.839844C38.0948 -0.19175 39.5263 -0.134984 42.6875 0.277344L45.1367 0.585938L47 0.839844C48.4286 9.2684 48.4286 9.26843 46 13.8398L43.4375 13.3398C38.7662 14.0193 37.599 16.1669 34.7266 19.7227C32.348 22.6394 30.1295 24.7308 27 26.8398C22.6099 26.9469 20.1901 24.6653 17 21.8398C13.4665 24.5516 10.8397 26.8883 8.4375 30.6523C7.23438 32.457 7.23436 32.457 6 33.8398C3.1875 34.2773 3.1875 34.2773 1 33.8398C0.289071 32.1406 0.289061 32.1406 0 29.8398C4.07784 22.7215 10.3622 17.4802 17 12.8398C19.8606 14.1992 21.8593 15.4851 24 17.8398C29.6525 16.4695 32.5114 12.1629 36 7.83984L34 4.83984C34.1875 2.71487 34.1875 2.71484 35 0.839844Z" fill="black"/>
</svg>
