<svg width="50" height="43" viewBox="0 0 50 43" fill="none" xmlns="http://www.w3.org/2000/svg">
<path d="M24.5469 0.0372343C26.1092 0.019832 26.1092 0.019832 27.7031 0.00207804C35.1865 0.0304243 41.432 0.336751 47.0156 5.84973C49.2504 11.049 49.128 15.8128 49.0469 21.4122C49.0623 22.4796 49.0778 23.5469 49.0938 24.6466C49.0708 29.268 48.854 32.6976 47.0156 36.9747C41.432 42.4877 35.1865 42.794 27.7031 42.8224C26.6616 42.8108 25.62 42.7992 24.5469 42.7872C22.9845 42.8046 22.9845 42.8046 21.3906 42.8224C13.9072 42.794 7.66179 42.4877 2.07812 36.9747C-0.156636 31.7755 -0.0342768 27.0117 0.046875 21.4122C0.0314062 20.3449 0.0159375 19.2775 0 18.1779C0.0229918 13.5565 0.239725 10.1268 2.07812 5.84973C8.42585 -0.417635 16.1463 -0.0563363 24.5469 0.0372343ZM12.5469 24.4122C12.2169 25.7322 11.8869 27.0522 11.5469 28.4122C19.7969 28.4122 28.0469 28.4122 36.5469 28.4122C36.5469 27.0922 36.5469 25.7722 36.5469 24.4122C28.6269 24.4122 20.7069 24.4122 12.5469 24.4122Z" fill="black"/>
</svg>
