<svg width="47" height="50" viewBox="0 0 47 50" fill="none" xmlns="http://www.w3.org/2000/svg">
<path d="M18.8242 0.0191099C20 0.0242661 21.1758 0.0294224 22.3872 0.0347349C28.9092 0.253869 33.5223 0.53122 38.5117 4.89411C40.5586 7.42536 40.5586 7.42536 42.1367 9.89411C42.6163 10.4819 43.0958 11.0697 43.5898 11.6754C48.0059 18.1523 46.4825 27.4119 46.1367 34.8941C46.1161 35.8596 46.0955 36.8251 46.0742 37.8199C45.875 41.5233 45.3439 43.6241 43.0703 46.587C39.4727 49.4164 36.7849 49.6216 32.3867 49.5582C31.2831 49.5653 31.2831 49.5653 30.1572 49.5727C28.6074 49.5761 27.0575 49.5669 25.5078 49.546C23.1429 49.5192 20.7827 49.5457 18.418 49.5777C16.9075 49.5744 15.3971 49.568 13.8867 49.5582C12.8334 49.5734 12.8334 49.5734 11.7588 49.5888C7.95407 49.4986 6.23854 48.9732 3.20264 46.6143C1.2081 43.9881 0.48907 42.9105 0.332031 39.7066C0.262905 38.5387 0.262905 38.5387 0.192383 37.3472C0.174014 36.5377 0.155645 35.7282 0.136719 34.8941C0.110615 34.0846 0.0845117 33.275 0.0576172 32.441C0.00320104 29.924 9.94997e-05 27.4116 0.0117188 24.8941C0.00785156 24.0562 0.00398438 23.2183 0 22.355C0.00385445 19.8651 0.0564725 17.3827 0.136719 14.8941C0.164272 13.6798 0.164272 13.6798 0.192383 12.441C0.420607 8.58512 0.922217 6.25872 2.90625 2.8863C7.9931 -0.250698 12.9545 -0.0201031 18.8242 0.0191099ZM21.1367 17.8941C19.9318 18.8782 19.9318 18.8782 20.0232 20.7518C20.0284 21.5425 20.0337 22.3333 20.0391 23.148C20.0423 24.002 20.0455 24.856 20.0488 25.7359C20.0572 26.6337 20.0656 27.5316 20.0742 28.4566C20.0787 29.3583 20.0832 30.26 20.0879 31.189C20.0997 33.4241 20.1162 35.6591 20.1367 37.8941C21.4567 37.8941 22.7767 37.8941 24.1367 37.8941C24.1367 31.6241 24.1367 25.3541 24.1367 18.8941C23.1467 18.5641 22.1567 18.2341 21.1367 17.8941ZM29.1367 23.8941C27.3255 25.7053 27.9215 28.3919 27.8867 30.8316C27.8609 31.9131 27.8352 32.9947 27.8086 34.109C27.9169 35.0281 28.0252 35.9472 28.1367 36.8941C29.6217 37.8841 29.6217 37.8841 31.1367 38.8941C32.502 37.7571 32.502 37.7571 32.2344 34.734C32.2228 33.4462 32.2112 32.1584 32.1992 30.8316C32.1902 29.5413 32.1812 28.2509 32.1719 26.9215C32.1603 25.9224 32.1487 24.9234 32.1367 23.8941C31.1467 23.8941 30.1567 23.8941 29.1367 23.8941ZM13.1367 26.8941C11.8772 27.9282 11.8772 27.9282 12.0391 30.1793C12.0507 31.0958 12.0623 32.0123 12.0742 32.9566C12.0832 33.8757 12.0923 34.7948 12.1016 35.7418C12.1132 36.452 12.1248 37.1623 12.1367 37.8941C13.1267 38.2241 14.1167 38.5541 15.1367 38.8941C16.2593 36.649 16.2709 35.3795 16.2617 32.8941C16.2643 32.1929 16.2669 31.4916 16.2695 30.7691C16.2505 28.8026 16.2505 28.8026 15.1367 26.8941C14.4767 26.8941 13.8167 26.8941 13.1367 26.8941Z" fill="black"/>
</svg>
