<svg width="49" height="49" viewBox="0 0 49 49" fill="none" xmlns="http://www.w3.org/2000/svg">
<path d="M28.2734 21.5098C31.2109 21.0723 31.2109 21.0723 34.2734 21.5098C36.0859 23.0098 36.086 23.0099 37.2734 25.5098C37.3796 26.8624 37.461 28.2171 37.5234 29.5723C37.6246 31.6656 37.6247 31.6657 38.2734 33.5098C41.6168 35.3474 41.6168 35.3475 45.2734 36.5098C47.2109 38.1973 47.211 38.1974 48.2734 40.5098V48.5098H20.2734L21.2734 41.5098L23.2969 40.0098C25.6431 38.5859 25.6431 38.5859 25.8125 35.2598L25.8984 31.5098C26.0802 24.7998 26.0802 24.7997 28.2734 21.5098ZM6.77344 0.134827C12.0855 0.163644 17.4988 2.73525 21.2734 6.50983C21.3618 8.88549 21.3887 11.2319 21.3711 13.6075C21.3697 14.3163 21.3686 15.0256 21.3672 15.7559C21.3616 18.0281 21.3486 20.3002 21.3359 22.5723C21.3309 24.1094 21.3264 25.6466 21.3223 27.1837C21.3112 30.9591 21.2939 34.7345 21.2734 38.5098C19.4236 39.5616 19.4236 39.5616 17.2734 40.5098C14.8711 39.6817 14.8711 39.6817 12.3359 38.2598C9.73798 36.8303 7.41222 35.5541 4.58203 34.6505C2.27346 33.5098 2.27319 33.5098 1.14551 31.2589C0.259739 28.4674 0.0154329 26.3024 0.0078125 23.3848L0 20.4942L0.0234375 17.5098L0 14.5255L0.0078125 11.6348L0.0146484 9.01764C0.554518 3.78604 1.40143 0.710399 6.77344 0.134827ZM24.2734 5.50983C35.1143 -0.512889 35.1144 -0.512899 42.2734 0.509827C45.7545 5.73137 45.4329 11.3971 45.3984 17.5098L45.4102 19.588C45.4024 23.6661 45.061 27.5096 44.2734 31.5098H40.2734L39.9414 29.6465L39.4609 27.1973L39.0039 24.7715C38.1845 22.2344 37.3346 21.166 35.2734 19.5098C32.9532 18.4953 32.9532 18.4953 30.2734 18.5098L24.2734 21.5098V5.50983Z" fill="black"/>
</svg>
